<svg width="1212" height="489" viewBox="0 0 1212 489" fill="none" xmlns="http://www.w3.org/2000/svg"><path d="M708.813 68.3657H676.042V42.4902H703.069V34.7549H676.042V8.87943H708.813V1.14404H667.862V76.101H708.813V68.3657zM782.153 55.8909V52.4953H773.974V56.2359C773.974 65.1697 769.339 69.5277 759.779 69.5277 750.363 69.5277 745.583 65.0608 745.583 56.2359V21.009C745.583 12.0752 750.218 7.71723 759.779 7.71723 769.321 7.71723 773.974 12.057 773.974 21.009V24.7496H782.153V21.2451C782.153 7.35407 774.41 0 759.779 0 745.147 0 737.404 7.35407 737.404 21.2451V55.8909C737.404 69.8727 745.147 77.2449 759.779 77.2449 774.41 77.2449 782.153 69.8727 782.153 55.8909zM831.283 0C816.652 0 808.909 7.35407 808.909 21.2451V55.8909C808.909 69.8727 816.652 77.2449 831.283 77.2449 845.915 77.2449 853.658 69.8546 853.658 55.8909V21.2451C853.658 7.35407 845.933 0 831.283 0zM817.106 21.009C817.106 12.0752 821.741 7.71723 831.302 7.71723 840.844 7.71723 845.497 12.057 845.497 21.009V56.2359C845.497 65.1697 840.862 69.5277 831.302 69.5277 821.886 69.5277 817.106 65.0608 817.106 56.2359V21.009zM888.611 19.5383L918.783 75.756 918.965 76.101H925.163V1.14404H916.983V57.7068L886.811 1.48905 886.629 1.14404H880.413V76.101H888.611V19.5383zM974.311 77.2449C988.943 77.2449 996.686 69.8546 996.686 55.8909V21.2451C996.686 7.35407 988.943 0 974.311 0 959.679 0 951.936 7.35407 951.936 21.2451V55.8909C951.936 69.8727 959.661 77.2449 974.311 77.2449zM988.488 56.2359C988.488 65.1697 983.853 69.5277 974.293 69.5277 964.878 69.5277 960.097 65.0608 960.097 56.2359V21.009C960.097 12.0752 964.732 7.71723 974.293 7.71723 983.835 7.71723 988.488 12.057 988.488 21.009V56.2359zM1048.61 43.6342L1059.99 21.0636V76.101H1068.17V1.14404H1062.08L1045.92 34.0648 1029.82 1.50721 1029.64 1.14404H1023.44V76.101H1031.62V21.1907L1042.89 43.6342H1048.61zM1098.04 8.87943H1113.23V68.3657H1098.04V76.101H1136.7V68.3657H1121.41V8.87943H1136.7V1.14404H1098.04V8.87943zM1188.82 77.2449C1203.46 77.2449 1211.2 69.8546 1211.2 55.8909V52.4953H1203.02V56.2359C1203.02 65.1697 1198.39 69.5277 1188.82 69.5277 1179.41 69.5277 1174.63 65.0608 1174.63 56.2359V21.009C1174.63 12.0752 1179.26 7.71723 1188.82 7.71723 1198.39 7.71723 1203.02 12.057 1203.02 21.009V24.7496H1211.2V21.2451C1211.2 7.35407 1203.46 0 1188.82 0 1174.19 0 1166.45 7.35407 1166.45 21.2451V55.8909C1166.45 69.8727 1174.18 77.2449 1188.82 77.2449zM688.274 283.122C702.487 283.122 710.648 275.877 710.648 263.257 710.648 249.566 699.815 244.972 690.273 240.941 681.948 237.418 674.096 234.095 674.096 225.397 674.096 217.789 679.131 213.613 688.292 213.613 697.707 213.613 702.487 218.243 702.487 227.359V227.994H710.667V227.359C710.667 213.504 702.724 205.877 688.292 205.877 674.078 205.877 665.917 213.068 665.917 225.634 665.917 239.325 676.75 243.919 686.292 247.95 694.617 251.473 702.469 254.796 702.469 263.493 702.469 271.174 697.471 275.405 688.401 275.405 678.913 275.405 674.096 270.775 674.096 261.659V261.024H665.917V261.659C665.899 275.496 673.86 283.122 688.274 283.122zM813.416 207.021H791.042V281.978H799.221V248.477H813.416C828.048 248.477 835.791 241.286 835.791 227.686 835.791 214.176 828.048 207.021 813.416 207.021zM799.221 214.757H813.416C822.959 214.757 827.612 218.879 827.612 227.359V228.285C827.612 236.692 822.977 240.759 813.416 240.759H799.221V214.757zM942.594 207.021H934.505L915.275 273.317 915.257 281.96H923.436V273.807L927.526 259.281H949.555L953.772 274.152V281.96H961.951V273.499L942.721 207.475 942.594 207.021zM947.356 251.582H929.725L938.54 220.295 947.356 251.582zM1086.06 261.768V258.373H1077.88V262.113C1077.88 271.047 1073.24 275.405 1063.68 275.405 1054.27 275.405 1049.49 270.938 1049.49 262.113V226.887C1049.49 217.953 1054.12 213.595 1063.68 213.595 1073.23 213.595 1077.88 217.935 1077.88 226.887V230.627H1086.06V227.104C1086.06 213.213 1078.31 205.859 1063.68 205.859 1049.05 205.859 1041.31 213.213 1041.31 227.104V261.75C1041.31 275.714 1049.05 283.104 1063.68 283.104 1078.31 283.122 1086.06 275.75 1086.06 261.768zM1209.35 214.757V207.021H1168.4V281.978H1209.35V274.243H1176.57V248.368H1203.6V240.632H1176.57V214.757H1209.35zM692.327 412.899H684.239L665.008 479.194 664.99 487.838H673.169V479.685L677.259 465.158H699.289L703.505 480.03V487.838H711.685V479.376L692.454 413.353 692.327 412.899zM697.089 457.459H679.458L688.274 426.173 697.089 457.459zM788.388 411.755C773.756 411.755 766.013 419.109 766.013 433V467.646C766.013 481.609 773.756 489 788.388 489 803.02 489 810.763 481.609 810.763 467.646V450.777H789.479V458.512H802.584V468.009C802.584 476.943 797.949 481.301 788.388 481.301 778.973 481.301 774.192 476.834 774.192 468.009V432.782C774.192 423.848 778.827 419.49 788.388 419.49 797.93 419.49 802.584 423.83 802.584 432.782V435.379H810.763V433.018C810.763 419.109 803.02 411.755 788.388 411.755zM868.072 487.856H909.023V480.121H876.251V454.245H903.279V446.51H876.251V420.634H909.023V412.899H868.072V487.856zM1002.79 469.462L972.602 413.244 972.421 412.899H966.223V487.856H974.402V431.293L1004.59 487.511 1004.77 487.856H1010.97V412.899H1002.79V469.462zM1088.71 411.755C1074.08 411.755 1066.34 419.109 1066.34 433V467.646C1066.34 481.609 1074.08 489 1088.71 489 1103.34 489 1111.09 481.609 1111.09 467.646V464.232H1102.91V467.973C1102.91 476.906 1098.27 481.264 1088.71 481.264 1079.3 481.264 1074.52 476.797 1074.52 467.973V432.746C1074.52 423.812 1079.15 419.454 1088.71 419.454 1098.25 419.454 1102.91 423.794 1102.91 432.746V436.486H1111.09V432.964C1111.09 419.109 1103.34 411.755 1088.71 411.755zM1203.82 412.899V422.123L1188.83 448.943 1173.83 422.123V412.899H1165.63V424.302L1184.74 457.35V487.856H1192.92V457.35L1212 424.302V412.899H1203.82zM16.9583 38.0594C26.3241 38.0594 33.9166 30.4744 33.9166 21.1179 33.9166 11.7613 26.3241 4.17627 16.9583 4.17627 7.59249 4.17627 0 11.7613 0 21.1179 0 30.4744 7.59249 38.0594 16.9583 38.0594zM16.9583 149.333C26.3241 149.333 33.9166 141.748 33.9166 132.391 33.9166 123.035 26.3241 115.45 16.9583 115.45 7.59249 115.45 0 123.035 0 132.391 0 141.748 7.59249 149.333 16.9583 149.333zM16.9583 260.588C26.3241 260.588 33.9166 253.003 33.9166 243.647 33.9166 234.29 26.3241 226.705 16.9583 226.705 7.59249 226.705 0 234.29 0 243.647 0 253.003 7.59249 260.588 16.9583 260.588zM16.9583 371.843C26.3241 371.843 33.9166 364.258 33.9166 354.902 33.9166 345.545 26.3241 337.96 16.9583 337.96 7.59249 337.96 0 345.545 0 354.902 0 364.258 7.59249 371.843 16.9583 371.843zM16.9583 483.117C26.3241 483.117 33.9166 475.532 33.9166 466.175 33.9166 456.818 26.3241 449.233 16.9583 449.233 7.59249 449.233 0 456.818 0 466.175 0 475.532 7.59249 483.117 16.9583 483.117zM148.844 38.0594C158.21 38.0594 165.802 30.4744 165.802 21.1179 165.802 11.7613 158.21 4.17627 148.844 4.17627 139.478 4.17627 131.886 11.7613 131.886 21.1179 131.886 30.4744 139.478 38.0594 148.844 38.0594zM148.844 149.333C158.21 149.333 165.802 141.748 165.802 132.391 165.802 123.035 158.21 115.45 148.844 115.45 139.478 115.45 131.886 123.035 131.886 132.391 131.886 141.748 139.478 149.333 148.844 149.333zM148.844 260.588C158.21 260.588 165.802 253.003 165.802 243.647 165.802 234.29 158.21 226.705 148.844 226.705 139.478 226.705 131.886 234.29 131.886 243.647 131.886 253.003 139.478 260.588 148.844 260.588zM148.844 371.843C158.21 371.843 165.802 364.258 165.802 354.902 165.802 345.545 158.21 337.96 148.844 337.96 139.478 337.96 131.886 345.545 131.886 354.902 131.886 364.258 139.478 371.843 148.844 371.843zM148.844 483.117C158.21 483.117 165.802 475.532 165.802 466.175 165.802 456.818 158.21 449.233 148.844 449.233 139.478 449.233 131.886 456.818 131.886 466.175 131.886 475.532 139.478 483.117 148.844 483.117zM280.73 38.0594C290.096 38.0594 297.688 30.4744 297.688 21.1179 297.688 11.7613 290.096 4.17627 280.73 4.17627 271.364 4.17627 263.771 11.7613 263.771 21.1179 263.771 30.4744 271.364 38.0594 280.73 38.0594zM280.73 149.333C290.096 149.333 297.688 141.748 297.688 132.391 297.688 123.035 290.096 115.45 280.73 115.45 271.364 115.45 263.771 123.035 263.771 132.391 263.771 141.748 271.364 149.333 280.73 149.333zM280.73 260.588C290.096 260.588 297.688 253.003 297.688 243.647 297.688 234.29 290.096 226.705 280.73 226.705 271.364 226.705 263.771 234.29 263.771 243.647 263.771 253.003 271.364 260.588 280.73 260.588zM280.73 371.843C290.096 371.843 297.688 364.258 297.688 354.902 297.688 345.545 290.096 337.96 280.73 337.96 271.364 337.96 263.771 345.545 263.771 354.902 263.771 364.258 271.364 371.843 280.73 371.843zM280.73 483.117C290.096 483.117 297.688 475.532 297.688 466.175 297.688 456.818 290.096 449.233 280.73 449.233 271.364 449.233 263.771 456.818 263.771 466.175 263.771 475.532 271.364 483.117 280.73 483.117zM412.616 38.0594C421.981 38.0594 429.574 30.4744 429.574 21.1179 429.574 11.7613 421.981 4.17627 412.616 4.17627 403.25 4.17627 395.657 11.7613 395.657 21.1179 395.657 30.4744 403.25 38.0594 412.616 38.0594zM412.616 149.333C421.981 149.333 429.574 141.748 429.574 132.391 429.574 123.035 421.981 115.45 412.616 115.45 403.25 115.45 395.657 123.035 395.657 132.391 395.657 141.748 403.25 149.333 412.616 149.333zM412.616 260.588C421.981 260.588 429.574 253.003 429.574 243.647 429.574 234.29 421.981 226.705 412.616 226.705 403.25 226.705 395.657 234.29 395.657 243.647 395.657 253.003 403.25 260.588 412.616 260.588zM412.616 371.843C421.981 371.843 429.574 364.258 429.574 354.902 429.574 345.545 421.981 337.96 412.616 337.96 403.25 337.96 395.657 345.545 395.657 354.902 395.657 364.258 403.25 371.843 412.616 371.843zM412.616 483.117C421.981 483.117 429.574 475.532 429.574 466.175 429.574 456.818 421.981 449.233 412.616 449.233 403.25 449.233 395.657 456.818 395.657 466.175 395.657 475.532 403.25 483.117 412.616 483.117zM544.501 38.0594C553.867 38.0594 561.46 30.4744 561.46 21.1179 561.46 11.7613 553.867 4.17627 544.501 4.17627 535.135 4.17627 527.543 11.7613 527.543 21.1179 527.543 30.4744 535.135 38.0594 544.501 38.0594zM544.501 149.333C553.867 149.333 561.46 141.748 561.46 132.391 561.46 123.035 553.867 115.45 544.501 115.45 535.135 115.45 527.543 123.035 527.543 132.391 527.543 141.748 535.135 149.333 544.501 149.333zM544.501 260.588C553.867 260.588 561.46 253.003 561.46 243.647 561.46 234.29 553.867 226.705 544.501 226.705 535.135 226.705 527.543 234.29 527.543 243.647 527.543 253.003 535.135 260.588 544.501 260.588zM544.501 371.843C553.867 371.843 561.46 364.258 561.46 354.902 561.46 345.545 553.867 337.96 544.501 337.96 535.135 337.96 527.543 345.545 527.543 354.902 527.543 364.258 535.135 371.843 544.501 371.843zM544.501 483.117C553.867 483.117 561.46 475.532 561.46 466.175 561.46 456.818 553.867 449.233 544.501 449.233 535.135 449.233 527.543 456.818 527.543 466.175 527.543 475.532 535.135 483.117 544.501 483.117z" fill="#272525"/></svg>